<mxfile host="app.diagrams.net" modified="2022-11-16T04:00:21.246Z" agent="5.0 (Windows NT 10.0; Win64; x64) AppleWebKit/537.36 (KHTML, like Gecko) Chrome/107.0.0.0 Safari/537.36 Edg/107.0.1418.42" etag="KeYqMPxdKFVQTW2dPjup" version="20.5.3" type="github">
  <diagram id="AhnOpRhV6lnkODjUMpa0" name="Page-1">
    <mxGraphModel dx="2160" dy="756" grid="1" gridSize="11" guides="1" tooltips="1" connect="1" arrows="1" fold="1" page="1" pageScale="1" pageWidth="850" pageHeight="1100" math="0" shadow="1">
      <root>
        <mxCell id="0" />
        <mxCell id="1" parent="0" />
        <mxCell id="9DdzNbev5yr624p6ZmV5-5" value="action" style="ellipse;whiteSpace=wrap;html=1;hachureGap=4;jiggle=2;strokeColor=#006658;fontFamily=Architects Daughter;fontSource=https%3A%2F%2Ffonts.googleapis.com%2Fcss%3Ffamily%3DArchitects%2BDaughter;fontSize=20;fontColor=#5C5C5C;fillColor=#21C0A5;sketch=1;rounded=1;" parent="1" vertex="1">
          <mxGeometry x="365" y="165" width="120" height="80" as="geometry" />
        </mxCell>
        <mxCell id="9DdzNbev5yr624p6ZmV5-6" value="" style="shape=flexArrow;endArrow=classic;html=1;rounded=1;hachureGap=4;jiggle=2;strokeColor=#006658;fontFamily=Architects Daughter;fontSource=https%3A%2F%2Ffonts.googleapis.com%2Fcss%3Ffamily%3DArchitects%2BDaughter;fontSize=16;fontColor=#5C5C5C;fillColor=#21C0A5;exitX=0;exitY=0.713;exitDx=0;exitDy=0;exitPerimeter=0;entryX=0.633;entryY=-0.028;entryDx=0;entryDy=0;entryPerimeter=0;sketch=1;curved=1;" parent="1" source="9DdzNbev5yr624p6ZmV5-5" target="9DdzNbev5yr624p6ZmV5-7" edge="1">
          <mxGeometry width="50" height="50" relative="1" as="geometry">
            <mxPoint x="400" y="310" as="sourcePoint" />
            <mxPoint x="210" y="170" as="targetPoint" />
            <Array as="points">
              <mxPoint x="308" y="231" />
            </Array>
          </mxGeometry>
        </mxCell>
        <mxCell id="9DdzNbev5yr624p6ZmV5-7" value="Build" style="ellipse;whiteSpace=wrap;html=1;hachureGap=4;jiggle=2;strokeColor=#006658;fontFamily=Architects Daughter;fontSource=https%3A%2F%2Ffonts.googleapis.com%2Fcss%3Ffamily%3DArchitects%2BDaughter;fontSize=20;fontColor=#5C5C5C;fillColor=#21C0A5;sketch=1;rounded=1;" parent="1" vertex="1">
          <mxGeometry x="165" y="385" width="120" height="80" as="geometry" />
        </mxCell>
        <mxCell id="9DdzNbev5yr624p6ZmV5-10" value="" style="shape=flexArrow;endArrow=classic;html=1;rounded=1;hachureGap=4;jiggle=2;strokeColor=#006658;fontFamily=Architects Daughter;fontSource=https%3A%2F%2Ffonts.googleapis.com%2Fcss%3Ffamily%3DArchitects%2BDaughter;fontSize=16;fontColor=#5C5C5C;fillColor=#21C0A5;entryX=0.5;entryY=0;entryDx=0;entryDy=0;exitX=0.992;exitY=0.688;exitDx=0;exitDy=0;exitPerimeter=0;sketch=1;curved=1;" parent="1" source="9DdzNbev5yr624p6ZmV5-5" target="9DdzNbev5yr624p6ZmV5-11" edge="1">
          <mxGeometry width="50" height="50" relative="1" as="geometry">
            <mxPoint x="415" y="109.99999999999996" as="sourcePoint" />
            <mxPoint x="260" y="192.96" as="targetPoint" />
            <Array as="points">
              <mxPoint x="572" y="242" />
            </Array>
          </mxGeometry>
        </mxCell>
        <mxCell id="9DdzNbev5yr624p6ZmV5-11" value="Query" style="ellipse;whiteSpace=wrap;html=1;hachureGap=4;jiggle=2;strokeColor=#006658;fontFamily=Architects Daughter;fontSource=https%3A%2F%2Ffonts.googleapis.com%2Fcss%3Ffamily%3DArchitects%2BDaughter;fontSize=20;fontColor=#5C5C5C;fillColor=#21C0A5;sketch=1;rounded=1;" parent="1" vertex="1">
          <mxGeometry x="594" y="396" width="120" height="80" as="geometry" />
        </mxCell>
        <mxCell id="9DdzNbev5yr624p6ZmV5-12" value="" style="shape=flexArrow;endArrow=classic;html=1;rounded=1;hachureGap=4;jiggle=2;strokeColor=#006658;fontFamily=Architects Daughter;fontSource=https%3A%2F%2Ffonts.googleapis.com%2Fcss%3Ffamily%3DArchitects%2BDaughter;fontSize=16;fontColor=#5C5C5C;fillColor=#21C0A5;exitX=0.5;exitY=0;exitDx=0;exitDy=0;entryX=0.458;entryY=0.963;entryDx=0;entryDy=0;entryPerimeter=0;sketch=1;curved=1;" parent="1" source="9DdzNbev5yr624p6ZmV5-5" target="9DdzNbev5yr624p6ZmV5-13" edge="1">
          <mxGeometry width="50" height="50" relative="1" as="geometry">
            <mxPoint x="489" y="66" as="sourcePoint" />
            <mxPoint x="324" y="148.96" as="targetPoint" />
            <Array as="points">
              <mxPoint x="451" y="110" />
            </Array>
          </mxGeometry>
        </mxCell>
        <mxCell id="9DdzNbev5yr624p6ZmV5-13" value="validation" style="ellipse;whiteSpace=wrap;html=1;hachureGap=4;jiggle=2;strokeColor=#006658;fontFamily=Architects Daughter;fontSource=https%3A%2F%2Ffonts.googleapis.com%2Fcss%3Ffamily%3DArchitects%2BDaughter;fontSize=20;fontColor=#5C5C5C;fillColor=#21C0A5;sketch=1;rounded=1;" parent="1" vertex="1">
          <mxGeometry x="396" y="33" width="120" height="80" as="geometry" />
        </mxCell>
        <mxCell id="9DdzNbev5yr624p6ZmV5-14" value="这部分代码我还没看" style="whiteSpace=wrap;html=1;rounded=1;arcSize=50;align=center;verticalAlign=middle;strokeWidth=1;autosize=1;spacing=4;treeFolding=1;treeMoving=1;newEdgeStyle={&quot;edgeStyle&quot;:&quot;entityRelationEdgeStyle&quot;,&quot;startArrow&quot;:&quot;none&quot;,&quot;endArrow&quot;:&quot;none&quot;,&quot;segment&quot;:10,&quot;curved&quot;:1};hachureGap=4;jiggle=2;strokeColor=#b85450;fontFamily=Architects Daughter;fontSource=https%3A%2F%2Ffonts.googleapis.com%2Fcss%3Ffamily%3DArchitects%2BDaughter;fontSize=20;fillColor=#f8cecc;sketch=1;" parent="1" vertex="1">
          <mxGeometry x="550" y="22" width="231" height="44" as="geometry" />
        </mxCell>
        <mxCell id="9DdzNbev5yr624p6ZmV5-15" value="" style="edgeStyle=entityRelationEdgeStyle;startArrow=none;endArrow=none;segment=10;rounded=1;hachureGap=4;jiggle=2;strokeColor=#b85450;fontFamily=Architects Daughter;fontSource=https%3A%2F%2Ffonts.googleapis.com%2Fcss%3Ffamily%3DArchitects%2BDaughter;fontSize=16;fontColor=#5C5C5C;fillColor=#f8cecc;sketch=1;curved=1;" parent="1" target="9DdzNbev5yr624p6ZmV5-14" edge="1">
          <mxGeometry relative="1" as="geometry">
            <mxPoint x="516" y="73" as="sourcePoint" />
          </mxGeometry>
        </mxCell>
        <mxCell id="9DdzNbev5yr624p6ZmV5-17" value="" style="shape=singleArrow;direction=south;whiteSpace=wrap;html=1;sketch=1;hachureGap=4;jiggle=2;strokeColor=#006658;fontFamily=Architects Daughter;fontSource=https%3A%2F%2Ffonts.googleapis.com%2Fcss%3Ffamily%3DArchitects%2BDaughter;fontSize=20;fontColor=#5C5C5C;fillColor=#21C0A5;" parent="1" vertex="1">
          <mxGeometry x="187" y="465" width="60" height="100" as="geometry" />
        </mxCell>
        <mxCell id="9DdzNbev5yr624p6ZmV5-19" value="getopt获取参数" style="ellipse;whiteSpace=wrap;html=1;sketch=1;hachureGap=4;jiggle=2;strokeColor=#006658;fontFamily=Architects Daughter;fontSource=https%3A%2F%2Ffonts.googleapis.com%2Fcss%3Ffamily%3DArchitects%2BDaughter;fontSize=20;fontColor=#5C5C5C;fillColor=#21C0A5;" parent="1" vertex="1">
          <mxGeometry x="157" y="565" width="120" height="80" as="geometry" />
        </mxCell>
        <mxCell id="9DdzNbev5yr624p6ZmV5-20" value="" style="shape=singleArrow;direction=south;whiteSpace=wrap;html=1;sketch=1;hachureGap=4;jiggle=2;strokeColor=#006658;fontFamily=Architects Daughter;fontSource=https%3A%2F%2Ffonts.googleapis.com%2Fcss%3Ffamily%3DArchitects%2BDaughter;fontSize=20;fontColor=#5C5C5C;fillColor=#21C0A5;" parent="1" vertex="1">
          <mxGeometry x="187" y="645" width="60" height="100" as="geometry" />
        </mxCell>
        <mxCell id="9DdzNbev5yr624p6ZmV5-21" value="read_garph函数读取图并" style="ellipse;whiteSpace=wrap;html=1;sketch=1;hachureGap=4;jiggle=2;strokeColor=#006658;fontFamily=Architects Daughter;fontSource=https%3A%2F%2Ffonts.googleapis.com%2Fcss%3Ffamily%3DArchitects%2BDaughter;fontSize=20;fontColor=#5C5C5C;fillColor=#21C0A5;" parent="1" vertex="1">
          <mxGeometry x="157" y="745" width="129" height="91" as="geometry" />
        </mxCell>
        <mxCell id="9DdzNbev5yr624p6ZmV5-22" value="进入PrunedLandmarkLabeling类" style="text;html=1;strokeColor=none;fillColor=none;align=center;verticalAlign=middle;whiteSpace=wrap;rounded=0;sketch=1;hachureGap=4;jiggle=2;fontFamily=Architects Daughter;fontSource=https%3A%2F%2Ffonts.googleapis.com%2Fcss%3Ffamily%3DArchitects%2BDaughter;fontSize=20;fontColor=#5C5C5C;" parent="1" vertex="1">
          <mxGeometry x="225" y="671" width="281" height="30" as="geometry" />
        </mxCell>
        <mxCell id="9DdzNbev5yr624p6ZmV5-25" value="build_index函数构建index(先用gen_order基于不同的策略构建order，再进行BFS构建Index)，" style="ellipse;whiteSpace=wrap;html=1;sketch=1;hachureGap=4;jiggle=2;strokeColor=#006658;fontFamily=Architects Daughter;fontSource=https%3A%2F%2Ffonts.googleapis.com%2Fcss%3Ffamily%3DArchitects%2BDaughter;fontSize=20;fontColor=#5C5C5C;fillColor=#21C0A5;" parent="1" vertex="1">
          <mxGeometry x="-99" y="1133" width="242" height="143" as="geometry" />
        </mxCell>
        <mxCell id="9DdzNbev5yr624p6ZmV5-27" value="" style="shape=flexArrow;endArrow=classic;html=1;rounded=0;sketch=1;hachureGap=4;jiggle=2;strokeColor=#006658;fontFamily=Architects Daughter;fontSource=https%3A%2F%2Ffonts.googleapis.com%2Fcss%3Ffamily%3DArchitects%2BDaughter;fontSize=16;fontColor=#5C5C5C;fillColor=#21C0A5;exitX=0.453;exitY=1.024;exitDx=0;exitDy=0;exitPerimeter=0;" parent="1" source="9DdzNbev5yr624p6ZmV5-21" edge="1">
          <mxGeometry width="50" height="50" relative="1" as="geometry">
            <mxPoint x="176" y="919" as="sourcePoint" />
            <mxPoint x="215" y="913" as="targetPoint" />
          </mxGeometry>
        </mxCell>
        <mxCell id="9DdzNbev5yr624p6ZmV5-31" value="是否需要多进程" style="strokeWidth=2;html=1;shape=mxgraph.flowchart.decision;whiteSpace=wrap;sketch=1;hachureGap=4;jiggle=2;strokeColor=#006658;fontFamily=Architects Daughter;fontSource=https%3A%2F%2Ffonts.googleapis.com%2Fcss%3Ffamily%3DArchitects%2BDaughter;fontSize=20;fontColor=#5C5C5C;fillColor=#21C0A5;" parent="1" vertex="1">
          <mxGeometry x="157" y="913" width="109" height="111" as="geometry" />
        </mxCell>
        <mxCell id="9DdzNbev5yr624p6ZmV5-33" value="" style="shape=flexArrow;endArrow=classic;html=1;rounded=0;sketch=1;hachureGap=4;jiggle=2;strokeColor=#006658;fontFamily=Architects Daughter;fontSource=https%3A%2F%2Ffonts.googleapis.com%2Fcss%3Ffamily%3DArchitects%2BDaughter;fontSize=16;fontColor=#5C5C5C;fillColor=#21C0A5;exitX=0.5;exitY=1;exitDx=0;exitDy=0;exitPerimeter=0;entryX=0.5;entryY=0;entryDx=0;entryDy=0;" parent="1" source="9DdzNbev5yr624p6ZmV5-31" target="9DdzNbev5yr624p6ZmV5-25" edge="1">
          <mxGeometry width="50" height="50" relative="1" as="geometry">
            <mxPoint x="226.4369999999999" y="849.184" as="sourcePoint" />
            <mxPoint x="226" y="924" as="targetPoint" />
          </mxGeometry>
        </mxCell>
        <mxCell id="9DdzNbev5yr624p6ZmV5-34" value="No" style="text;html=1;align=center;verticalAlign=middle;resizable=0;points=[];autosize=1;strokeColor=none;fillColor=none;fontSize=20;fontFamily=Architects Daughter;fontColor=#5C5C5C;sketch=1;hachureGap=4;jiggle=2;fontSource=https%3A%2F%2Ffonts.googleapis.com%2Fcss%3Ffamily%3DArchitects%2BDaughter;" parent="1" vertex="1">
          <mxGeometry x="163" y="1050" width="44" height="33" as="geometry" />
        </mxCell>
        <mxCell id="9DdzNbev5yr624p6ZmV5-35" value="" style="shape=flexArrow;endArrow=classic;html=1;rounded=0;sketch=1;hachureGap=4;jiggle=2;strokeColor=#006658;fontFamily=Architects Daughter;fontSource=https%3A%2F%2Ffonts.googleapis.com%2Fcss%3Ffamily%3DArchitects%2BDaughter;fontSize=16;fontColor=#5C5C5C;fillColor=#21C0A5;exitX=0.5;exitY=1;exitDx=0;exitDy=0;exitPerimeter=0;" parent="1" edge="1">
          <mxGeometry width="50" height="50" relative="1" as="geometry">
            <mxPoint x="207" y="1016.9999999999998" as="sourcePoint" />
            <mxPoint x="473" y="1133" as="targetPoint" />
          </mxGeometry>
        </mxCell>
        <mxCell id="9DdzNbev5yr624p6ZmV5-36" value="build_index_multi_process函数构建index" style="ellipse;whiteSpace=wrap;html=1;sketch=1;hachureGap=4;jiggle=2;strokeColor=#006658;fontFamily=Architects Daughter;fontSource=https%3A%2F%2Ffonts.googleapis.com%2Fcss%3Ffamily%3DArchitects%2BDaughter;fontSize=20;fontColor=#5C5C5C;fillColor=#21C0A5;" parent="1" vertex="1">
          <mxGeometry x="380.5" y="1144" width="151" height="77" as="geometry" />
        </mxCell>
        <mxCell id="9DdzNbev5yr624p6ZmV5-37" value="这部分代码我没仔细看，不知道为什么开了多进程反而速度降得很低，（我进程线程完全不会编程..)" style="whiteSpace=wrap;html=1;rounded=1;arcSize=50;align=center;verticalAlign=middle;strokeWidth=1;autosize=1;spacing=4;treeFolding=1;treeMoving=1;newEdgeStyle={&quot;edgeStyle&quot;:&quot;entityRelationEdgeStyle&quot;,&quot;startArrow&quot;:&quot;none&quot;,&quot;endArrow&quot;:&quot;none&quot;,&quot;segment&quot;:10,&quot;curved&quot;:1};hachureGap=4;jiggle=2;strokeColor=#b85450;fontFamily=Architects Daughter;fontSource=https%3A%2F%2Ffonts.googleapis.com%2Fcss%3Ffamily%3DArchitects%2BDaughter;fontSize=20;fillColor=#f8cecc;sketch=1;" parent="1" vertex="1">
          <mxGeometry x="506" y="1265" width="363" height="132" as="geometry" />
        </mxCell>
        <mxCell id="9DdzNbev5yr624p6ZmV5-38" value="" style="edgeStyle=entityRelationEdgeStyle;startArrow=none;endArrow=none;segment=10;rounded=1;hachureGap=4;jiggle=2;strokeColor=#b85450;fontFamily=Architects Daughter;fontSource=https%3A%2F%2Ffonts.googleapis.com%2Fcss%3Ffamily%3DArchitects%2BDaughter;fontSize=16;fontColor=#5C5C5C;fillColor=#f8cecc;sketch=1;curved=1;entryX=0.57;entryY=0;entryDx=0;entryDy=0;entryPerimeter=0;" parent="1" source="9DdzNbev5yr624p6ZmV5-36" target="9DdzNbev5yr624p6ZmV5-37" edge="1">
          <mxGeometry relative="1" as="geometry">
            <mxPoint x="351.9999999999998" y="1118" as="sourcePoint" />
          </mxGeometry>
        </mxCell>
        <mxCell id="9DdzNbev5yr624p6ZmV5-39" value="" style="shape=singleArrow;direction=south;whiteSpace=wrap;html=1;sketch=1;hachureGap=4;jiggle=2;strokeColor=#006658;fontFamily=Architects Daughter;fontSource=https%3A%2F%2Ffonts.googleapis.com%2Fcss%3Ffamily%3DArchitects%2BDaughter;fontSize=20;fontColor=#5C5C5C;fillColor=#21C0A5;" parent="1" vertex="1">
          <mxGeometry x="624" y="476" width="60" height="100" as="geometry" />
        </mxCell>
        <mxCell id="9DdzNbev5yr624p6ZmV5-40" value="getopt获取参数" style="ellipse;whiteSpace=wrap;html=1;sketch=1;hachureGap=4;jiggle=2;strokeColor=#006658;fontFamily=Architects Daughter;fontSource=https%3A%2F%2Ffonts.googleapis.com%2Fcss%3Ffamily%3DArchitects%2BDaughter;fontSize=20;fontColor=#5C5C5C;fillColor=#21C0A5;" parent="1" vertex="1">
          <mxGeometry x="594" y="576" width="120" height="80" as="geometry" />
        </mxCell>
        <mxCell id="9DdzNbev5yr624p6ZmV5-48" value="" style="shape=singleArrow;direction=south;whiteSpace=wrap;html=1;sketch=1;hachureGap=4;jiggle=2;strokeColor=#006658;fontFamily=Architects Daughter;fontSource=https%3A%2F%2Ffonts.googleapis.com%2Fcss%3Ffamily%3DArchitects%2BDaughter;fontSize=20;fontColor=#5C5C5C;fillColor=#21C0A5;" parent="1" vertex="1">
          <mxGeometry x="624" y="656" width="60" height="100" as="geometry" />
        </mxCell>
        <mxCell id="9DdzNbev5yr624p6ZmV5-49" value="进入PrunedLandmarkLabeling类" style="text;html=1;strokeColor=none;fillColor=none;align=center;verticalAlign=middle;whiteSpace=wrap;rounded=0;sketch=1;hachureGap=4;jiggle=2;fontFamily=Architects Daughter;fontSource=https%3A%2F%2Ffonts.googleapis.com%2Fcss%3Ffamily%3DArchitects%2BDaughter;fontSize=20;fontColor=#5C5C5C;" parent="1" vertex="1">
          <mxGeometry x="662" y="682" width="281" height="30" as="geometry" />
        </mxCell>
        <mxCell id="9DdzNbev5yr624p6ZmV5-50" value="load_index函数加载构建好的index" style="ellipse;whiteSpace=wrap;html=1;sketch=1;hachureGap=4;jiggle=2;strokeColor=#006658;fontFamily=Architects Daughter;fontSource=https%3A%2F%2Ffonts.googleapis.com%2Fcss%3Ffamily%3DArchitects%2BDaughter;fontSize=20;fontColor=#5C5C5C;fillColor=#21C0A5;" parent="1" vertex="1">
          <mxGeometry x="594" y="756" width="129" height="91" as="geometry" />
        </mxCell>
        <mxCell id="9DdzNbev5yr624p6ZmV5-52" value="" style="shape=singleArrow;direction=south;whiteSpace=wrap;html=1;sketch=1;hachureGap=4;jiggle=2;strokeColor=#006658;fontFamily=Architects Daughter;fontSource=https%3A%2F%2Ffonts.googleapis.com%2Fcss%3Ffamily%3DArchitects%2BDaughter;fontSize=20;fontColor=#5C5C5C;fillColor=#21C0A5;" parent="1" vertex="1">
          <mxGeometry x="631" y="847" width="60" height="100" as="geometry" />
        </mxCell>
        <mxCell id="9DdzNbev5yr624p6ZmV5-53" value="调用class里的query函数作查询" style="ellipse;whiteSpace=wrap;html=1;sketch=1;hachureGap=4;jiggle=2;strokeColor=#006658;fontFamily=Architects Daughter;fontSource=https%3A%2F%2Ffonts.googleapis.com%2Fcss%3Ffamily%3DArchitects%2BDaughter;fontSize=20;fontColor=#5C5C5C;fillColor=#21C0A5;" parent="1" vertex="1">
          <mxGeometry x="601" y="947" width="129" height="91" as="geometry" />
        </mxCell>
        <mxCell id="9DdzNbev5yr624p6ZmV5-54" value="完成后write_index函数将index和order写入pll.idx" style="ellipse;whiteSpace=wrap;html=1;sketch=1;hachureGap=4;jiggle=2;strokeColor=#006658;fontFamily=Architects Daughter;fontSource=https%3A%2F%2Ffonts.googleapis.com%2Fcss%3Ffamily%3DArchitects%2BDaughter;fontSize=20;fontColor=#5C5C5C;fillColor=#21C0A5;" parent="1" vertex="1">
          <mxGeometry x="66" y="1441" width="264" height="148" as="geometry" />
        </mxCell>
        <mxCell id="9DdzNbev5yr624p6ZmV5-55" value="" style="shape=flexArrow;endArrow=classic;html=1;rounded=0;sketch=1;hachureGap=4;jiggle=2;strokeColor=#006658;fontFamily=Architects Daughter;fontSource=https%3A%2F%2Ffonts.googleapis.com%2Fcss%3Ffamily%3DArchitects%2BDaughter;fontSize=16;fontColor=#5C5C5C;fillColor=#21C0A5;entryX=0.5;entryY=0;entryDx=0;entryDy=0;" parent="1" target="9DdzNbev5yr624p6ZmV5-54" edge="1">
          <mxGeometry width="50" height="50" relative="1" as="geometry">
            <mxPoint x="11" y="1287" as="sourcePoint" />
            <mxPoint x="247" y="1172" as="targetPoint" />
          </mxGeometry>
        </mxCell>
        <mxCell id="9DdzNbev5yr624p6ZmV5-56" value="" style="shape=flexArrow;endArrow=classic;html=1;rounded=0;sketch=1;hachureGap=4;jiggle=2;strokeColor=#006658;fontFamily=Architects Daughter;fontSource=https%3A%2F%2Ffonts.googleapis.com%2Fcss%3Ffamily%3DArchitects%2BDaughter;fontSize=16;fontColor=#5C5C5C;fillColor=#21C0A5;entryX=0.722;entryY=0.015;entryDx=0;entryDy=0;entryPerimeter=0;" parent="1" source="9DdzNbev5yr624p6ZmV5-36" target="9DdzNbev5yr624p6ZmV5-54" edge="1">
          <mxGeometry width="50" height="50" relative="1" as="geometry">
            <mxPoint x="228" y="1264.9999999999998" as="sourcePoint" />
            <mxPoint x="329" y="1348" as="targetPoint" />
          </mxGeometry>
        </mxCell>
      </root>
    </mxGraphModel>
  </diagram>
</mxfile>
